<?xml version="1.0" encoding="UTF-8"?>
<svg width="72px" height="56px" viewBox="0 0 72 56" version="1.1" xmlns="http://www.w3.org/2000/svg" xmlns:xlink="http://www.w3.org/1999/xlink">
    <!-- Generator: Sketch 42 (36781) - http://www.bohemiancoding.com/sketch -->
    <title>icon</title>
    <desc>Created with Sketch.</desc>
    <defs>
        <polygon id="path-1" points="64 0.68 64 19.07 0.87 19.07 0.87 0.68"></polygon>
        <path d="M0.9,0.41 L0.9,1.06 L0.9,3.42 L0.9,2.77 L0.9,0.41 Z" id="path-3"></path>
    </defs>
    <g id="Page-1" stroke="none" stroke-width="1" fill="none" fill-rule="evenodd">
        <g id="Messaging_AmazonSES_email">
            <g id="Group">
                <g transform="translate(8.000000, 36.000000)">
                    <polygon id="Shape" fill="#876929" fill-rule="nonzero" points="64 0.68 64 19.07 0.87 19.07 0.87 0.68"></polygon>
                    <g id="Clipped">
                        <mask id="mask-2" fill="white">
                            <use xlink:href="#path-1"></use>
                        </mask>
                        <g id="Shape"></g>
                        <polyline id="Shape" fill="#876929" fill-rule="nonzero" mask="url(#mask-2)" points="64 0.68 64 19.07 0.87 19.07 0.87 0.68 64 0.68"></polyline>
                    </g>
                </g>
                <path d="M72,12.84 L72,52.71 L8.87,52.71 L8.87,28.21 C9.85806545,28.4048457 10.862908,28.5019805 11.87,28.5 C16.3055234,28.5071722 20.5192654,26.5612427 23.39,23.18 L40,34 L72,12.84 Z" id="Shape" fill="#D9A741" fill-rule="nonzero"></path>
                <polygon id="Shape" fill="#876929" fill-rule="nonzero" points="24.52 18.94 24.52 21.3 40 31.2 69.54 11.67 69.54 9.31"></polygon>
                <path d="M26.84,9.31 L69.54,9.31 L40,28.83 L24.5,18.94 C26.0684782,16.5329982 26.9055919,13.7229362 26.91,10.85 C26.9173874,10.3357302 26.8940124,9.82147888 26.84,9.31 Z" id="Shape" fill="#D9A741" fill-rule="nonzero"></path>
                <g>
                    <g transform="translate(15.000000, 11.000000)">
                        <path d="M0.9,0.41 L0.9,1.06 L0.9,3.42 L0.9,2.77 L0.9,0.41 Z" id="Shape" fill="#D9A741" fill-rule="nonzero"></path>
                        <g id="Clipped">
                            <mask id="mask-4" fill="white">
                                <use xlink:href="#path-3"></use>
                            </mask>
                            <g id="Shape"></g>
                            <path d="M0.9,0.41 L0.9,2.77 L0.9,3.42 L0.9,1.06 L0.9,0.41" id="Shape" fill="#D9A741" fill-rule="nonzero" mask="url(#mask-4)"></path>
                        </g>
                    </g>
                    <path d="M22.49,6.38 C24.0059243,9.37208801 24.1910678,12.864402 23,16 C22.3952992,17.7628994 21.1296894,19.2221153 19.47,20.07 C18.9247552,20.3682696 18.3114169,20.5198813 17.69,20.51 C16.1178081,20.5130736 14.6446351,19.742836 13.75,18.45 C13.63,18.27 13.52,18.1 13.36,17.88 C12.5030503,18.9243872 11.1987905,19.4966266 9.85,19.42 C8.96706741,19.4806992 8.10238484,19.1484472 7.48727875,18.5121305 C6.87217267,17.8758139 6.56941435,17.0003684 6.66,16.12 C6.61623909,14.6071682 7.52335731,13.2285083 8.93,12.67 C10.22402,12.2462428 11.5697137,12.0006537 12.93,11.94 L12.93,11.66 C12.9931717,11.1355866 12.9028551,10.6041082 12.67,10.13 C12.3793887,9.76172025 11.9285579,9.55679714 11.46,9.58 C10.6526942,9.51643401 9.92245908,10.0587724 9.75,10.85 C9.7254459,11.0451192 9.57439523,11.2002524 9.38,11.23 L7.31,11 C7.20863722,10.985288 7.11750564,10.9302804 7.05726222,10.8474457 C6.9970188,10.764611 6.97276555,10.6609645 6.99,10.56 C7.47,8.07 9.72,7.32 11.76,7.32 C12.9390494,7.28367465 14.0909229,7.67829799 15,8.43 C16,9.38 15.93,10.67 15.93,12.06 L15.93,15.36 C15.9353569,16.079066 16.2142418,16.7691273 16.71,17.29 C16.9451418,17.4708993 17.2333256,17.5693035 17.53,17.57 C18.53,17.57 19.67,16.57 20.29,14.99 C21.234158,12.6316021 21.1690888,9.98907032 20.11,7.68 C18.66,4.98 15.23,3.46 11.87,3.46 C9.95645114,3.41661065 8.07775224,3.97637196 6.5,5.06 C2.06975529,8.34371033 0.961207588,14.5086377 3.97,19.13 C5.92229267,22.0356984 9.22019637,23.7468393 12.72,23.67 C14.689456,23.6766382 16.6241811,23.1514985 18.32,22.15 C18.4615082,22.0637544 18.6242856,22.0187309 18.79,22.02 C19.1168322,22.0203409 19.4183798,22.1959256 19.58,22.48 C19.6966556,22.6889798 19.7242269,22.9361364 19.656491,23.1656859 C19.5887551,23.3952353 19.4314212,23.5878297 19.22,23.7 C17.2119087,24.9438938 14.8920336,25.5923492 12.53,25.57 C8.42514773,25.6601334 4.54897104,23.6844852 2.21,20.31 C-1.57651574,14.7314756 -0.31803478,7.16298868 5.07,3.11 C7.0784347,1.64304117 9.51344123,0.877050659 12,0.93 C12.8154207,0.930286515 13.6290059,1.00729252 14.43,1.16 C17.7744141,1.57353905 20.7447492,3.4972548 22.49,6.38 L22.49,6.38 Z M12.49,16.38 C12.8304497,15.6855181 12.9690438,14.9093914 12.89,14.14 L12.89,13.69 C11.35,13.69 9.72,14.01 9.72,15.81 C9.72,16.73 10.19,17.35 11.01,17.35 C11.6483901,17.317615 12.2154175,16.9318822 12.48,16.35 L12.49,16.38 Z" id="Shape" fill="#D9A741" fill-rule="nonzero"></path>
                </g>
            </g>
        </g>
    </g>
</svg>